<?xml version="1.0" encoding="utf-8"?>
<!-- Generator: Adobe Illustrator 24.0.0, SVG Export Plug-In . SVG Version: 6.00 Build 0)  -->
<svg version="1.1" id="레이어_1" xmlns="http://www.w3.org/2000/svg" xmlns:xlink="http://www.w3.org/1999/xlink" x="0px"
	 y="0px" viewBox="0 0 32 32" style="enable-background:new 0 0 32 32;" xml:space="preserve">
<style type="text/css">
	.st0{fill:#FFFFFF;}
</style>
<g>
	<path class="st0" d="M10.5,14.2c-1.1-0.6-1.4-2-0.8-3c0.4-0.7,1.1-1.1,1.9-1.1c1.2,0,2.2,1,2.2,2.2c0,0.8-0.4,1.5-1.1,1.9v2.1
		l4.9,4.9c0.4,0.2,0.6,0.5,0.6,0.9v3.5c0,0.6-0.4,1-1,1H17c-0.6,0-1-0.4-1-1v-2.9l-5-5c0,0,0,0-0.1-0.1c-0.2-0.2-0.4-0.5-0.4-0.8
		C10.5,16.8,10.5,14.2,10.5,14.2z M21.5,17c1.1,0.6,1.4,2,0.8,3c-0.4,0.7-1.1,1.1-1.9,1.1c-1.2,0-2.2-1-2.2-2.2
		c0-0.8,0.4-1.5,1.1-1.9v-2.1L14.4,10c-0.4-0.2-0.6-0.5-0.6-0.9V5.6c0-0.6,0.4-1,1-1H15c0.6,0,1,0.4,1,1v2.9l5,5c0,0,0,0.1,0.1,0.1
		c0.2,0.2,0.4,0.5,0.4,0.8V17z"/>
</g>
</svg>
